<svg width="30" height="30" viewBox="0 0 30 30" fill="none" xmlns="http://www.w3.org/2000/svg">
<mask id="mask0_2023_40" style="mask-type:alpha" maskUnits="userSpaceOnUse" x="0" y="0" width="30" height="30">
<rect width="30" height="30" fill="white"/>
</mask>
<g mask="url(#mask0_2023_40)">
</g>
<path d="M20.3333 15.3333H9.66663" stroke="white" stroke-width="1.5" stroke-linecap="round" stroke-linejoin="round"/>
<path d="M20.3333 12.6667H9.66663" stroke="white" stroke-width="1.5" stroke-linecap="round" stroke-linejoin="round"/>
<path d="M11.6666 22V10.6667C11.6666 10.4899 11.7369 10.3203 11.8619 10.1953C11.9869 10.0702 12.1565 10 12.3333 10H15C16.0608 10 17.0782 10.4214 17.8284 11.1716C18.5785 11.9217 19 12.9391 19 14C19 15.0609 18.5785 16.0783 17.8284 16.8284C17.0782 17.5786 16.0608 18 15 18H11.6666" stroke="white" stroke-width="1.5" stroke-linecap="round" stroke-linejoin="round"/>
<path d="M15 28.75C12.6667 28.75 10.5208 28.2188 8.5625 27.1562C6.60417 26.0938 5 24.6771 3.75 22.9062V26.25H1.25V18.75H8.75V21.25H5.65625C6.65625 22.75 7.97396 23.9583 9.60938 24.875C11.2448 25.7917 13.0417 26.25 15 26.25C16.5625 26.25 18.026 25.9531 19.3906 25.3594C20.7552 24.7656 21.9427 23.9635 22.9531 22.9531C23.9635 21.9427 24.7656 20.7552 25.3594 19.3906C25.9531 18.026 26.25 16.5625 26.25 15H28.75C28.75 16.8958 28.3906 18.6771 27.6719 20.3438C26.9531 22.0104 25.9688 23.4688 24.7188 24.7188C23.4688 25.9688 22.0104 26.9531 20.3438 27.6719C18.6771 28.3906 16.8958 28.75 15 28.75ZM1.25 15C1.25 13.1042 1.60938 11.3229 2.32812 9.65625C3.04688 7.98958 4.03125 6.53125 5.28125 5.28125C6.53125 4.03125 7.98958 3.04688 9.65625 2.32812C11.3229 1.60938 13.1042 1.25 15 1.25C17.3333 1.25 19.4792 1.78125 21.4375 2.84375C23.3958 3.90625 25 5.32292 26.25 7.09375V3.75H28.75V11.25H21.25V8.75H24.3438C23.3438 7.25 22.026 6.04167 20.3906 5.125C18.7552 4.20833 16.9583 3.75 15 3.75C13.4375 3.75 11.974 4.04688 10.6094 4.64062C9.24479 5.23438 8.05729 6.03646 7.04688 7.04688C6.03646 8.05729 5.23438 9.24479 4.64062 10.6094C4.04688 11.974 3.75 13.4375 3.75 15H1.25Z" fill="white"/>
</svg>
